<?xml version="1.0" encoding="utf-8"?>
<!-- Generator: Adobe Illustrator 25.4.2, SVG Export Plug-In . SVG Version: 6.00 Build 0)  -->
<svg version="1.1" id="Layer_1" xmlns="http://www.w3.org/2000/svg" xmlns:xlink="http://www.w3.org/1999/xlink" x="0px" y="0px"
	 viewBox="0 0 480 480" style="enable-background:new 0 0 480 480;" xml:space="preserve">
<style type="text/css">
	.st0{fill:#FFFFFF;}
</style>
<g>
	<g>
		<ellipse class="st0" cx="240.32" cy="239.88" rx="137.63" ry="97.41"/>
		<path d="M295.12,275.59c-1.59-1.14-2.94-2.11-4.35-3.11c-1.4,1-2.75,1.97-4.19,3.01c0.05-0.28,0.06-0.53,0.13-0.75
			c0.43-1.34,0.88-2.67,1.34-4.07c-0.47-0.76-1.33-1.07-2.01-1.6c-0.69-0.54-1.4-1.06-2.1-1.58c0.02-0.05,0.03-0.09,0.05-0.11
			c0.03-0.03,0.06-0.06,0.09-0.06c1.67,0,3.35,0,5.04,0c0.51-1.6,1.02-3.18,1.61-4.99c0.42,1.2,0.83,2.16,1.06,3.17
			c0.09,0.37,0.26,0.7,0.35,1.06c0.05,0.21,0.15,0.42,0.26,0.73c1.63,0,3.37,0,5.38,0c-1.52,1.27-3.04,2.12-4.34,3.31
			C294,272.18,294.52,273.76,295.12,275.59z"/>
		<path d="M307.52,257.92c-1.46,1.04-2.76,1.97-4.07,2.91c-0.35-0.62,0.4-1,0.39-1.54c-0.01-0.59,0.32-1.07,0.48-1.6
			s0.33-1.06,0.52-1.67c-1.13-1.23-2.78-1.88-3.93-3.1c0.07-0.11,0.08-0.14,0.11-0.17c0.03-0.03,0.06-0.06,0.09-0.06
			c1.59,0,3.19,0,4.84,0c0.51-1.59,1.03-3.17,1.57-4.85c0.74,1.57,1.01,3.21,1.71,4.82c1.53,0,3.19,0,4.99,0
			c-0.13,0.28-0.17,0.48-0.29,0.57c-1.01,0.72-2.05,1.41-3.07,2.13c-0.22,0.16-0.39,0.38-0.61,0.6c0.5,1.6,1.01,3.18,1.57,4.95
			C310.19,259.99,309.01,258.68,307.52,257.92z"/>
		<path d="M273.99,257.87c-1.37,0.99-2.72,1.97-4.18,3.02c0.04-0.3,0.04-0.54,0.11-0.76c0.45-1.37,0.91-2.74,1.4-4.2
			c-0.69-0.5-1.4-0.94-2.02-1.48c-0.62-0.54-1.52-0.74-1.99-1.64c0.88-0.21,1.69-0.08,2.49-0.1c0.84-0.02,1.68-0.01,2.57-0.01
			c0.26-0.79,0.52-1.6,0.78-2.41c0.26-0.8,0.52-1.6,0.84-2.6c0.58,1.8,1.08,3.38,1.61,5.04c1.67,0,3.32,0,5.15,0
			c-0.6,0.83-1.37,1.18-2.01,1.67c-0.66,0.51-1.35,0.99-2.06,1.5c0.51,1.64,1,3.23,1.55,5
			C276.77,259.86,275.42,258.89,273.99,257.87z"/>
		<path d="M324.34,262.33c0.6,1.78,1.13,3.36,1.67,4.98c1.66,0,3.37,0,5.29,0c-1.4,1.3-2.98,2.08-4.27,3.28
			c0.52,1.58,1.04,3.16,1.64,4.99c-1.57-1.12-2.93-2.09-4.35-3.1c-1.39,1-2.74,1.97-4.14,2.97c-0.01-0.17-0.1-0.4-0.03-0.53
			c0.69-1.33,0.84-2.84,1.5-4.21c-0.51-0.8-1.42-1.06-2.02-1.66c-0.58-0.59-1.47-0.79-1.92-1.49c0.05-0.1,0.06-0.14,0.09-0.17
			c0.02-0.03,0.06-0.07,0.09-0.07c1.6,0,3.19,0,4.85,0C323.25,265.74,323.76,264.15,324.34,262.33z"/>
		<path d="M252.96,275.35c0.52-1.58,1.03-3.15,1.56-4.75c-1.19-1.2-2.76-1.88-3.92-3.02c0.05-0.12,0.06-0.16,0.08-0.18
			c0.02-0.03,0.06-0.07,0.09-0.07c1.6,0,3.19,0,4.79,0c0.53-1.59,1.06-3.16,1.65-4.93c0.33,0.93,0.61,1.69,0.86,2.46
			c0.27,0.81,0.5,1.63,0.76,2.47c1.66,0,3.29,0,5.05,0c-0.1,0.23-0.13,0.44-0.24,0.53c-0.67,0.48-1.38,0.91-2.05,1.4
			c-0.56,0.41-1.08,0.87-1.66,1.33c0.51,1.6,1.01,3.19,1.57,4.96c-1.5-1.07-2.86-2.04-4.27-3.05c-0.71,0.49-1.39,0.96-2.06,1.44
			c-0.68,0.49-1.35,1-2.03,1.5C253.08,275.4,253.02,275.37,252.96,275.35z"/>
		<path d="M207.06,257.96c-0.59,0.16-3.07,1.85-4.33,2.95c0-0.29-0.06-0.52,0.01-0.7c0.25-0.7,0.48-1.4,0.71-2.11
			c0.21-0.66,0.4-1.35,0.76-2.02c-1.12-1.32-2.81-1.92-3.97-3.07c0.07-0.17,0.08-0.21,0.1-0.24c0.02-0.03,0.06-0.07,0.09-0.07
			c1.6,0,3.19,0,4.79,0c0.56-1.52,0.92-3.1,1.67-4.73c0.58,1.69,1.09,3.19,1.61,4.72c1.56,0,3.11,0,4.62,0
			c0.14,0.15,0.25,0.26,0.35,0.36c-1.3,0.95-2.58,1.9-3.92,2.88c0.52,1.64,1.02,3.22,1.58,5
			C209.65,259.9,208.28,259.02,207.06,257.96z"/>
		<path d="M177.58,260.98c-1.47-1.07-2.77-2.01-4.19-3.05c-0.28-0.09-0.45,0.3-0.75,0.46c-1.25,0.66-2.23,1.69-3.46,2.42
			c-0.22-0.49,0.15-0.92,0.28-1.35c0.35-1.17,0.78-2.31,1.18-3.46c-1.34-1-2.62-1.96-3.89-2.92c-0.04-0.03-0.02-0.15-0.02-0.23
			c0.02-0.03,0.04-0.07,0.07-0.09c0.03-0.02,0.06-0.05,0.1-0.05c1.59,0,3.19,0,4.75,0c0.54-1.61,1.07-3.19,1.64-4.89
			c0.58,1.71,1.11,3.3,1.65,4.91c1.59,0,3.13,0,4.64,0c0.13,0.13,0.21,0.21,0.3,0.3c-0.03,0.05-0.05,0.14-0.09,0.15
			c-0.07,0.03-0.19-0.02-0.23,0.02c-0.76,0.83-1.7,1.4-2.67,1.95c-0.3,0.17-0.52,0.5-0.85,0.83
			C176.31,257.59,177.07,259.13,177.58,260.98z"/>
		<path d="M223.63,262.41c0.58,1.72,1.1,3.3,1.64,4.9c1.66,0,3.28,0,4.91,0c0.2,0.45-0.12,0.55-0.38,0.72
			c-1.15,0.81-2.29,1.63-3.49,2.5c0.52,1.64,1.03,3.23,1.59,5c-1.47-1.06-2.82-2.03-4.24-3.06c-1.38,0.99-2.73,1.96-4.18,2.99
			c0.04-0.27,0.03-0.51,0.1-0.73c0.45-1.37,0.91-2.74,1.39-4.19c-1.4-1.03-2.79-2.06-4.35-3.21c1.95,0,3.66,0,5.34,0
			C222.52,265.72,223.05,264.14,223.63,262.41z"/>
		<path d="M238.81,252.7c0.28-0.86,0.55-1.63,0.78-2.41c0.21-0.74,0.42-1.48,0.85-2.31c0.57,1.67,1.08,3.17,1.62,4.75
			c1.66,0,3.31,0,5.08,0c-0.47,0.92-1.39,1.08-1.97,1.66c-0.59,0.58-1.34,1.01-2.1,1.55c0.52,1.61,1.04,3.2,1.61,4.97
			c-1.5-0.97-2.78-1.98-4.11-2.94c-0.55,0.14-2.92,1.75-4.33,2.96c0.05-0.35,0.04-0.59,0.11-0.8c0.21-0.71,0.44-1.41,0.67-2.12
			c0.22-0.67,0.47-1.33,0.74-2.08c-0.7-0.5-1.41-0.94-2.03-1.49c-0.62-0.54-1.52-0.74-1.99-1.64c0.87-0.22,1.69-0.08,2.49-0.11
			C237.08,252.68,237.92,252.7,238.81,252.7z"/>
		<path d="M158.16,267.36c1.71,0,3.33,0,5.19,0c-1.45,1.26-2.93,2.13-4.21,3.2c0.52,1.56,1.06,3.16,1.65,4.91
			c-0.83-0.39-1.43-0.92-2.06-1.41c-0.66-0.51-1.36-0.97-2.15-1.53c-1.47,0.73-2.73,1.93-4.3,2.97c0.44-1.72,1.02-3.27,1.51-4.98
			c-1.32-0.98-2.71-2.01-4.26-3.16c1.92,0,3.62,0,5.34,0c0.53-1.65,1.06-3.26,1.62-5C157.08,264.1,157.6,265.68,158.16,267.36z"/>
		<path d="M196.77,267.31c-0.36,0.99-1.33,1.09-1.9,1.66c-0.58,0.59-1.35,0.99-2.05,1.48c0.32,1.67,0.92,3.17,1.43,4.75
			c-0.16,0.01-0.31,0.02-0.44,0.03c-1.2-0.9-2.39-1.79-3.65-2.74c-1.51,0.83-2.78,1.96-4.23,2.97c-0.02-0.89,0.45-1.63,0.7-2.42
			c0.25-0.78,0.49-1.55,0.78-2.44c-1.3-1.13-2.84-1.99-4.25-3.24c1.85,0,3.59,0,5.3,0c0.39-1.6,1.11-3.01,1.38-4.55
			c0.01-0.03,0.05-0.06,0.08-0.09c0.06-0.06,0.11-0.11,0.19-0.19c0.53,1.58,1.05,3.14,1.61,4.79
			C193.35,267.31,195.01,267.31,196.77,267.31z"/>
		<path d="M309.24,223.71c1.66,0,3.37,0,5.29,0c-1.54,1.14-2.92,2.16-4.31,3.19c0.53,1.6,1.03,3.11,1.53,4.62
			c-0.55-0.03-3.24-1.83-4.17-2.75c-1.35,0.98-2.7,1.95-4.29,3.1c0.47-1.85,1.11-3.33,1.57-4.98c-1.32-0.98-2.64-1.97-3.95-2.94
			c0.07-0.12,0.08-0.15,0.11-0.18c0.03-0.03,0.06-0.06,0.09-0.06c1.59,0,3.19,0,4.81,0c0.51-1.59,1.02-3.17,1.61-5.02
			C308.14,220.47,308.67,222.02,309.24,223.71z"/>
		<path d="M276.68,197.96c0.52,1.57,1.02,3.07,1.56,4.7c-0.99-0.18-1.5-0.89-2.17-1.33c-0.7-0.46-1.35-1-2.05-1.53
			c-1.32,0.98-2.66,1.98-4.29,3.01c0.52-1.75,1.06-3.23,1.58-4.78c-1.13-1.28-2.75-1.96-4.14-3.3c1.89-0.05,3.54,0,5.15-0.03
			c0.54-1.62,1.07-3.2,1.67-4.99c0.59,1.77,1.12,3.33,1.68,4.99c1.56,0,3.22,0,5.07,0c-0.21,0.26-0.29,0.4-0.41,0.48
			c-0.7,0.52-1.42,1.01-2.12,1.54C277.7,197.12,277.21,197.54,276.68,197.96z"/>
		<path d="M310.24,197.98c0.53,1.59,1.03,3.06,1.55,4.62c-0.18-0.01-0.35,0.03-0.44-0.03c-0.98-0.72-1.94-1.47-2.93-2.18
			c-0.26-0.19-0.59-0.3-0.91-0.45c-1.35,0.94-2.66,1.85-3.98,2.77c-0.06-0.04-0.11-0.08-0.17-0.13c0.52-1.6,1.04-3.2,1.55-4.78
			c-1.48-0.88-2.74-1.86-3.99-2.84c0.07-0.11,0.09-0.15,0.11-0.17c0.03-0.03,0.06-0.06,0.09-0.06c1.59,0,3.19,0,4.81,0
			c0.51-1.59,1.02-3.18,1.59-4.94c0.71,1.71,1.16,3.32,1.7,4.93c1.63,0.06,3.29-0.04,5.14,0.06
			C313,196.05,311.5,196.81,310.24,197.98z"/>
		<path d="M269.72,231.75c0.57-1.7,1.07-3.2,1.57-4.73c-1.11-1.31-2.77-1.93-4.04-3.26c1.8,0,3.42,0,5.05,0
			c0.55-1.65,1.09-3.26,1.7-5.05c0.59,1.76,1.12,3.34,1.69,5.01c1.58,0,3.24,0,5.1,0c-1.31,1.33-2.9,1.98-4.08,3.28
			c0.49,1.46,0.99,2.97,1.53,4.59c-0.21-0.04-0.39-0.03-0.52-0.11c-1.03-0.64-1.91-1.48-2.99-2.04c-0.27-0.14-0.46-0.44-0.68-0.66
			C272.64,229.7,271.41,230.85,269.72,231.75z"/>
		<path d="M213.54,223.71c-1.12,1.42-2.78,1.98-3.94,3.29c0.46,1.49,0.95,3.02,1.47,4.7c-0.25-0.13-0.41-0.19-0.55-0.28
			c-1.21-0.85-2.42-1.7-3.67-2.58c-1.32,0.86-2.56,2.02-4.24,2.93c0.55-1.71,1.03-3.21,1.55-4.8c-1.22-1.08-2.64-1.99-3.98-2.99
			c0.04-0.08,0.08-0.15,0.12-0.23c1.66,0,3.31,0,4.93,0c0.51-1.6,0.99-3.12,1.48-4.64c0.02-0.07,0.11-0.11,0.2-0.2
			c0.52,1.59,1.04,3.16,1.58,4.81C210.13,223.71,211.78,223.71,213.54,223.71z"/>
		<path d="M206.81,189.78c0.71,1.68,1.03,3.32,1.7,4.93c1.61,0,3.27,0,5.11,0c-0.22,0.26-0.29,0.39-0.41,0.48
			c-0.7,0.52-1.41,1.02-2.12,1.53c-0.46,0.33-0.92,0.65-1.49,1.06c0.24,1.59,1.01,3.15,1.44,4.99c-1.55-0.96-2.89-1.94-4.17-2.97
			c-1.32,0.95-2.67,1.91-4.23,3.03c0.43-1.79,1-3.28,1.47-4.88c-1.11-1.19-2.73-1.86-4-3.19c1.8,0,3.42,0,5.07,0
			C205.74,193.12,206.26,191.51,206.81,189.78z"/>
		<path d="M238.76,194.72c0.56-1.67,1.09-3.24,1.67-4.97c0.6,1.74,1.04,3.35,1.68,4.99c1.6,0,3.25,0,5.19,0
			c-1.49,1.12-2.76,2.07-4.11,3.08c-0.08,0.55,0.29,1.1,0.48,1.7c0.32,1.01,0.61,2.03,0.95,3.14c-0.91-0.21-1.44-0.89-2.11-1.33
			c-0.66-0.44-1.29-0.91-2-1.41c-1.51,0.72-2.69,1.92-4.29,2.87c0.14-0.56,0.17-0.96,0.33-1.29c0.53-1.11,0.57-2.38,1.29-3.5
			c-1.41-1.05-2.73-2.04-4.21-3.14c1-0.22,1.82-0.1,2.62-0.12C237.09,194.7,237.92,194.72,238.76,194.72z"/>
		<path d="M171.64,223.75c0.59-1.7,0.98-3.31,1.64-4.97c0.58,1.73,1.1,3.3,1.64,4.91c1.65,0,3.27,0,4.98,0
			c-0.42,0.85-1.23,1.19-1.86,1.66c-0.68,0.5-1.39,0.95-2.04,1.7c0.47,1.45,0.97,2.98,1.48,4.56c-0.16-0.03-0.27-0.02-0.37-0.06
			c-0.17-0.07-0.35-0.14-0.49-0.25c-1.1-0.83-2.19-1.66-3.31-2.51c-1.3,0.94-2.64,1.91-4.03,2.92c-0.38-0.7,0.32-1.08,0.33-1.6
			c0.02-0.55,0.23-1,0.46-1.49c0.24-0.49,0.31-1.06,0.48-1.7c-1.2-1.11-2.73-1.96-4.17-3.16
			C168.23,223.75,169.94,223.75,171.64,223.75z"/>
		<path d="M176.05,197.69c0.2,1.73,0.95,3.27,1.44,5.01c-0.28-0.13-0.48-0.2-0.65-0.32c-1.18-0.84-2.34-1.69-3.55-2.57
			c-1.28,0.93-2.62,1.89-4.01,2.9c-0.4-0.69,0.31-1.07,0.33-1.59c0.01-0.55,0.23-1.01,0.45-1.49c0.23-0.5,0.31-1.06,0.49-1.74
			c-1.29-0.97-2.67-2.01-4.15-3.13c1.84,0,3.54,0,5.23,0c0.61-1.62,0.98-3.29,1.66-4.97c0.58,1.72,1.1,3.3,1.64,4.91
			c1.65,0,3.27,0,4.93,0C179.32,195.46,177.46,196.92,176.05,197.69z"/>
		<path d="M216.77,238.38c1.77,0,3.48,0,5.17,0c0.67-1.61,0.99-3.3,1.71-5.08c0.57,1.8,1.07,3.38,1.6,5.03c1.67,0,3.32,0,5.28,0
			c-1.5,1.13-2.77,2.08-4.12,3.09c-0.08,0.54,0.28,1.1,0.48,1.7c0.33,1.01,0.61,2.03,0.92,3.05c-0.53-0.12-3.35-2.03-4.1-2.77
			c-1.42,0.87-2.7,1.97-4.26,2.76c0.48-1.5,0.96-2.99,1.47-4.59C219.76,240.33,218.15,239.58,216.77,238.38z"/>
		<path d="M233.9,223.74c1.63,0,3.25,0,4.86,0c0.54-1.62,1.07-3.2,1.68-5.01c0.58,1.79,1.09,3.38,1.6,4.99c1.67,0,3.3,0,5.08,0
			c-0.13,0.22-0.18,0.39-0.29,0.47c-0.7,0.51-1.43,1-2.13,1.51c-0.53,0.39-1.03,0.81-1.55,1.24c0.5,1.58,0.99,3.11,1.53,4.83
			c-1.6-0.97-2.95-1.93-4.2-2.98c-1.35,0.97-2.7,1.93-4.26,3.05c0.45-1.8,1.08-3.28,1.53-4.92c-1.31-0.98-2.63-1.97-3.95-2.95
			C233.82,223.88,233.86,223.81,233.9,223.74z"/>
		<path d="M292.45,238.35c1.6,0,3.26,0,4.95,0c-0.25,0.46-2.82,2.4-3.91,2.97c0.27,1.66,1.04,3.2,1.51,4.95
			c-0.94-0.25-1.45-0.96-2.15-1.36c-0.72-0.41-1.35-0.98-2.06-1.52c-1.35,0.92-2.62,2.03-4.28,2.99c0.59-1.81,1.1-3.42,1.6-4.94
			c-1.4-1.01-2.69-1.95-3.97-2.87c0.06-0.12,0.07-0.16,0.1-0.18c0.02-0.03,0.06-0.07,0.09-0.07c1.59,0,3.19,0,4.78,0
			c0.53-1.59,1.06-3.16,1.64-4.92C291.44,235.09,291.89,236.69,292.45,238.35z"/>
		<path d="M149.56,238.34c1.92,0,3.63,0,5.32,0c0.48-1.64,0.96-3.23,1.59-4.99c0.61,1.8,1.14,3.38,1.68,4.99c1.66,0,3.29,0,5.08,0
			c-1.21,1.24-2.67,1.92-3.93,3.1c0.02,0.73,0.46,1.53,0.67,2.38c0.2,0.8,0.57,1.56,0.68,2.55c-1.44-1.03-2.8-1.99-4.18-2.97
			c-1.27,0.93-2.61,1.91-4.09,2.98c0.03-0.99,0.44-1.69,0.66-2.45c0.23-0.78,0.51-1.55,0.78-2.44
			C152.48,240.5,151.1,239.48,149.56,238.34z"/>
		<path d="M257.21,243.39c-1.32,0.96-2.67,1.93-4.25,3.07c0.53-1.9,1.12-3.51,1.58-5.12c-0.93-0.49-3.62-2.43-3.91-2.82
			c-0.01-0.02,0.01-0.07,0.03-0.15c1.61,0,3.23,0,4.86,0c0.56-1.64,1.1-3.25,1.7-5.04c0.59,1.75,1.11,3.32,1.67,4.99
			c1.57,0,3.22,0,5.05,0c-1.28,1.23-2.62,2.08-4,3.08c0.26,1.57,1.01,3.12,1.52,4.87c-0.98-0.25-1.51-1-2.24-1.42
			C258.51,244.44,257.87,243.88,257.21,243.39z"/>
		<path d="M324.37,243.39c-1.39,1-2.71,1.95-4.18,3.01c0.03-0.32,0.01-0.49,0.06-0.62c0.5-1.23,0.75-2.55,1.32-3.76
			c0.09-0.19,0.01-0.47,0.01-0.7c-0.88-0.47-3.62-2.52-3.84-2.86c0.03-0.03,0.05-0.06,0.08-0.08c0.03-0.02,0.07-0.04,0.1-0.04
			c1.59,0,3.18,0,4.77,0c0.52-1.61,1.04-3.19,1.63-5.01c0.6,1.77,1.12,3.32,1.69,4.98c1.62,0,3.36,0,5.36,0
			c-1.56,1.13-2.9,2.1-4.34,3.14c0.48,1.51,0.99,3.1,1.5,4.71c-0.11,0.03-0.26,0.11-0.31,0.07
			C326.93,245.28,325.65,244.33,324.37,243.39z"/>
		<path d="M190.06,243.38c-1.3,0.95-2.65,1.92-4.2,3.05c0.49-1.78,0.92-3.33,1.53-4.95c-1.35-1-2.73-2.01-4.11-3.03
			c0.02-0.03,0.03-0.06,0.06-0.08c0.03-0.02,0.07-0.05,0.1-0.05c1.67,0,3.34,0,4.98,0c0.29-0.85,0.58-1.65,0.84-2.46
			c0.25-0.77,0.47-1.56,0.78-2.59c0.62,1.86,1.14,3.45,1.68,5.07c1.67,0,3.3,0,5.06,0c-1.18,1.27-2.63,1.95-3.93,3.08
			c-0.03,0.77,0.56,1.54,0.69,2.39c0.13,0.84,0.74,1.52,0.6,2.49C192.78,245.33,191.43,244.36,190.06,243.38z"/>
		<path d="M190.15,175.48c0.54,1.66,1.06,3.24,1.59,4.86c1.61,0,3.24,0,5.09,0c-0.54,0.43-0.91,0.76-1.32,1.05
			c-0.43,0.31-0.89,0.56-1.31,0.87c-0.43,0.32-0.84,0.67-1.35,1.09c-0.07,0.81,0.4,1.55,0.68,2.35c0.27,0.8,0.5,1.63,0.78,2.55
			c-0.21-0.05-0.39-0.05-0.51-0.14c-1.23-0.9-2.44-1.81-3.69-2.75c-1.37,0.98-2.73,1.94-4.34,3.09c0.53-1.88,1.12-3.43,1.61-5.03
			c-1.38-1-2.73-1.99-4.14-3.02c1.68,0,3.31,0,4.84,0c0.78-0.51,0.66-1.33,0.92-1.97c0.32-0.79,0.49-1.63,0.75-2.45
			C189.8,175.81,189.98,175.69,190.15,175.48z"/>
		<path d="M190,214.36c-1.37,1-2.67,1.94-4.1,2.99c0.06-0.37,0.06-0.61,0.14-0.83c0.44-1.37,0.9-2.74,1.36-4.11
			c-1.39-1.01-2.74-2-4.16-3.04c1.71,0,3.34,0,4.93,0c0.41-0.44,0.55-0.91,0.65-1.47c0.15-0.82,0.53-1.61,0.82-2.41
			c0.11-0.31,0.22-0.62,0.4-1.11c0.82,1.7,1.07,3.39,1.71,4.97c1.63,0,3.26,0,5.14,0c-1.44,1.06-2.64,2.06-4.05,2.95
			c0.22,1.68,1.04,3.21,1.46,4.91c-0.61,0.13-0.73-0.5-1.11-0.69c-0.37-0.18-0.72-0.39-1.06-0.62c-0.38-0.26-0.72-0.57-1.09-0.84
			C190.69,214.81,190.34,214.59,190,214.36z"/>
		<path d="M220.96,212.42c-1.35-1-2.64-1.95-3.92-2.89c0.06-0.09,0.07-0.12,0.09-0.15c0.03-0.02,0.06-0.05,0.1-0.05
			c1.59,0,3.19,0,4.77,0c0.45-1.64,0.99-3.21,1.72-4.79c0.52,1.56,1.05,3.11,1.61,4.77c1.55,0,3.21,0,5.16,0
			c-1.49,1.11-2.76,2.04-4.11,3.04c0.22,1.63,1.03,3.16,1.51,4.96c-0.91-0.41-1.52-1.02-2.24-1.46c-0.74-0.45-1.39-1.05-2.13-1.62
			c-0.64,0.67-1.32,1.14-2.02,1.6c-0.66,0.43-1.25,0.98-2.09,1.59C219.91,215.58,220.42,213.97,220.96,212.42z"/>
		<path d="M210.91,289.87c-1.38-0.99-2.75-1.99-4.09-2.95c-1.39,1.02-2.69,1.99-4.05,2.99c-0.23-0.61,0.12-1.03,0.25-1.47
			c0.33-1.1,0.73-2.17,1.1-3.26c0.02-0.07,0-0.16,0-0.27c-1.34-0.95-2.69-1.91-4.14-2.94c1.72-0.1,3.37,0,4.98-0.06
			c0.67-0.52,0.6-1.32,0.82-1.97c0.27-0.81,0.68-1.58,0.76-2.45c0.01-0.12,0.21-0.23,0.39-0.41c0.54,1.6,1.07,3.17,1.63,4.84
			c1.56,0,3.22,0,5.14,0c-1.49,1.09-2.76,2.02-4.1,3.01C209.87,286.58,210.63,288.12,210.91,289.87z"/>
		<path d="M223.65,175.32c0.6,1.79,1.13,3.36,1.69,5.03c1.57,0,3.23,0,5.17,0c-1.48,1.07-2.73,1.98-4.03,2.93
			c-0.28,0.54,0.12,1.06,0.27,1.57c0.33,1.12,0.75,2.22,1.22,3.57c-0.94-0.54-1.54-1.1-2.19-1.59c-0.66-0.5-1.37-0.92-2.15-1.44
			c-1.32,0.94-2.68,1.91-4.19,2.98c0.15-1.01,0.56-1.77,0.77-2.57c0.21-0.82,0.51-1.63,0.75-2.37c-1.35-1-2.64-1.95-4.12-3.05
			c1.9,0,3.56,0,5.17,0C222.52,178.69,222.93,177.08,223.65,175.32z"/>
		<path d="M177.56,290.03c-1.57-1.13-2.94-2.13-4.31-3.12c-1.35,0.99-2.67,1.95-4.09,2.99c0-0.29-0.05-0.51,0.01-0.7
			c0.45-1.33,0.93-2.65,1.39-3.97c0.02-0.07,0-0.16,0-0.26c-1.34-0.98-2.69-1.97-4.1-3c1.69,0,3.32,0,5.03,0
			c0.67-1.57,1.07-3.23,1.77-5.02c0.76,1.74,1.11,3.38,1.73,4.98c1.6,0,3.22,0,4.95,0c-0.49,0.77-1.29,0.99-1.88,1.47
			c-0.61,0.51-1.27,0.97-1.93,1.47c-0.19,0.41,0.04,0.77,0.17,1.17C176.72,287.28,177.1,288.54,177.56,290.03z"/>
		<path d="M156.51,175.25c0.59,1.86,1.09,3.44,1.61,5.09c1.67,0,3.32,0,5.27,0c-1.51,1.1-2.79,2.03-4.16,3.03
			c0.4,1.6,0.94,3.21,1.5,4.98c-1.56-0.97-2.86-2.11-4.26-3c-1.37,1.01-2.68,1.98-4.17,3.08c0.13-0.64,0.13-1.11,0.31-1.49
			c0.5-1.04,0.67-2.19,1.17-3.23c0.05-0.1,0.01-0.24,0.01-0.36c-1.36-0.96-2.71-1.92-4.18-2.96c1.75-0.11,3.41,0,5.16-0.07
			C155.32,178.73,155.87,177.13,156.51,175.25z"/>
		<path d="M149.64,209.36c1.75,0,3.37,0,5.11,0c0.55-1.61,1.1-3.21,1.66-4.81c0.07,0,0.14,0,0.21,0c0.51,1.59,1.02,3.19,1.54,4.8
			c1.67,0,3.29,0,5.14,0c-1.37,1.11-2.7,1.96-3.99,2.96c-0.03,0.89,0.55,1.66,0.68,2.52c0.13,0.84,0.72,1.53,0.64,2.5
			c-1.41-1.02-2.78-2.02-4.13-3c-1.37,1-2.69,1.96-4.03,2.94c-0.33-0.54,0.1-0.97,0.22-1.4c0.33-1.17,0.78-2.31,1.18-3.44
			C152.45,211.4,151.11,210.43,149.64,209.36z"/>
		<path d="M254.51,212.38c-1.36-1-2.64-1.94-4.08-3c1.77,0,3.31,0,4.85,0c0.72-0.74,0.84-1.71,1.08-2.59
			c0.18-0.68,0.58-1.3,0.64-2.02c0.01-0.08,0.15-0.15,0.28-0.27c0.54,1.61,1.07,3.19,1.62,4.82c1.58,0,3.2,0,4.84,0
			c-0.1,0.5-0.47,0.63-0.83,0.82c-0.33,0.17-0.52,0.53-0.91,0.69c-0.37,0.15-0.58,0.58-1.01,0.75c-0.34,0.14-0.62,0.43-1,0.72
			c-0.08,0.84,0.39,1.58,0.67,2.38c0.27,0.81,0.5,1.63,0.79,2.55c-0.2-0.05-0.4-0.04-0.51-0.13c-1.15-1-2.45-1.8-3.68-2.7
			c-0.05-0.04-0.15-0.02-0.14-0.02c-1.33,0.99-2.61,1.95-3.91,2.92c-0.09-0.36,0.29-1.76,0.53-2.43
			C254.03,214.07,254.25,213.24,254.51,212.38z"/>
		<path d="M187.4,299.61c-1.43-1.05-2.76-2.03-4.12-3.03c1.66,0,3.29,0,4.99,0c0.71-1.55,1.02-3.26,1.81-4.95
			c0.7,1.68,1.14,3.29,1.69,4.91c1.6,0,3.23,0,5.05,0c-1.32,1.2-2.78,1.93-4.07,3.06c0.51,1.56,1.03,3.15,1.57,4.82
			c-0.18-0.02-0.35,0.01-0.45-0.06c-1.01-0.75-2.01-1.52-3.01-2.28c-0.27-0.2-0.56-0.37-0.84-0.55c-1.34,0.96-2.67,1.91-4.1,2.94
			c0.04-0.3,0.04-0.54,0.11-0.76C186.48,302.36,186.94,300.99,187.4,299.61z"/>
		<path d="M287.96,212.3c-1.27-0.93-2.53-1.87-3.99-2.94c1.88,0,3.51,0,5.13,0c0.53-1.62,1.04-3.21,1.62-4.99
			c0.74,1.73,1.17,3.35,1.72,4.97c1.6,0,3.23,0,5.08,0c-1.35,1.13-2.6,2.06-3.95,2.92c-0.16,0.93,0.54,1.62,0.67,2.44
			c0.13,0.86,0.56,1.61,0.75,2.54c-0.17-0.02-0.34,0.01-0.43-0.06c-1.1-0.84-2.18-1.69-3.27-2.53c-0.14-0.11-0.34-0.15-0.57-0.24
			c-1.28,0.93-2.63,1.91-4.18,3.04c0.22-0.76,0.37-1.31,0.53-1.85c0.15-0.53,0.47-1.01,0.49-1.6
			C287.58,213.4,288.29,212.97,287.96,212.3z"/>
		<path d="M324.33,175.33c0.6,1.8,1.13,3.38,1.68,5.01c1.58,0,3.21,0,5.05,0c-0.51,0.46-0.82,0.83-1.3,1.08
			c-0.5,0.26-0.87,0.78-1.37,1.06c-0.47,0.25-0.91,0.53-1.34,0.87c0.4,1.63,0.99,3.2,1.55,4.94c-1.63-0.84-2.84-2.02-4.3-2.9
			c-1.31,0.95-2.65,1.93-4.1,2.98c-0.02-0.26-0.07-0.41-0.03-0.52c0.46-1.29,0.94-2.57,1.39-3.86c0.07-0.21,0.01-0.47,0.01-0.68
			c-1.31-0.96-2.59-1.88-4.04-2.95c1.87,0,3.5,0,5.11,0C323.19,178.76,323.72,177.18,324.33,175.33z"/>
		<path d="M293.49,183.46c0.48,1.52,0.98,3.1,1.51,4.79c-1.63-0.73-2.75-2.05-4.26-2.87c-0.64,0.46-1.32,0.95-1.99,1.43
			c-0.68,0.49-1.35,0.97-2.18,1.56c0.07-0.3,0.1-0.46,0.15-0.62c0.43-1.26,0.88-2.51,1.29-3.78c0.06-0.18,0.01-0.4,0.01-0.58
			c-1.29-0.97-2.57-1.94-4.03-3.04c1.88,0,3.5,0,5.11,0c0.53-1.63,1.04-3.21,1.64-5.08c0.62,1.82,1.14,3.37,1.7,5.03
			c1.54,0,3.2,0,5.07,0C296.22,181.61,294.76,182.34,293.49,183.46z"/>
		<path d="M255.54,180.39c0.59-1.7,0.98-3.31,1.67-5.06c0.6,1.8,1.13,3.37,1.68,5c1.58,0,3.2,0,4.84,0
			c-0.1,0.51-0.48,0.63-0.84,0.82c-0.33,0.17-0.51,0.54-0.92,0.69c-0.38,0.14-0.68,0.48-1.01,0.74c-0.3,0.23-0.61,0.45-1,0.74
			c-0.07,0.84,0.4,1.59,0.67,2.38c0.27,0.81,0.5,1.63,0.79,2.56c-1.57-0.8-2.79-1.97-4.25-2.88c-0.64,0.47-1.31,0.96-1.98,1.44
			c-0.68,0.48-1.36,0.95-2.11,1.48c-0.03-0.18-0.12-0.35-0.07-0.44c0.39-0.69,0.48-1.48,0.77-2.2c0.29-0.72,0.47-1.49,0.71-2.28
			c-1.27-1.01-2.72-1.77-3.98-2.99C252.29,180.39,253.91,180.39,255.54,180.39z"/>
		<path d="M243.14,284.95c0.32,1.65,1.04,3.18,1.51,4.9c-1.59-0.84-2.84-2.04-4.29-2.9c-1.34,0.97-2.65,1.93-4.07,2.96
			c0-0.29-0.09-0.57,0.01-0.7c0.49-0.63,0.41-1.44,0.68-2.12c0.28-0.69,0.51-1.39,0.74-2.12c-1.31-0.97-2.61-1.92-4.09-3.01
			c1.88,0,3.51,0,5.14,0c0.47-1.64,0.97-3.22,1.58-5.05c0.76,1.79,1.19,3.4,1.74,5.02c1.6,0,3.23,0,5.07,0
			C245.86,283.1,244.5,283.89,243.14,284.95z"/>
		<path d="M327.06,212.35c0.4,1.62,0.98,3.19,1.55,4.95c-1.6-0.91-2.83-2.07-4.32-2.93c-1.31,0.95-2.65,1.93-4.09,2.98
			c-0.02-0.24-0.07-0.39-0.03-0.5c0.46-1.29,0.94-2.57,1.39-3.86c0.07-0.21,0.01-0.47,0.01-0.65c-1.32-0.97-2.59-1.9-4.04-2.97
			c1.88,0,3.5,0,5.11,0c0.54-1.62,1.07-3.2,1.65-4.94c0.79,1.65,1.1,3.3,1.69,4.9c1.69,0,3.39,0,5.25,0
			C329.77,210.39,328.43,211.36,327.06,212.35z"/>
		<path d="M217.14,296.55c1.55,0,3.09,0,4.58,0c0.69-0.54,0.62-1.33,0.84-1.99c0.27-0.81,0.68-1.58,0.76-2.45
			c0.01-0.12,0.21-0.23,0.39-0.41c0.54,1.6,1.07,3.17,1.63,4.84c1.56,0,3.22,0,5.17,0c-1.52,1.09-2.8,2.01-4.13,2.96
			c0.22,1.71,1.09,3.22,1.49,5.03c-0.9-0.4-1.43-1.13-2.18-1.54c-0.75-0.41-1.41-0.99-2.07-1.46c-1.4,1.02-2.71,1.98-4.07,2.97
			c-0.23-0.58,0.13-1,0.26-1.44c0.33-1.1,0.73-2.17,1.1-3.26c0.02-0.07,0-0.16,0-0.28c-1.27-0.92-2.57-1.86-3.86-2.8
			C217.08,296.66,217.11,296.6,217.14,296.55z"/>
		<path d="M269.71,290.01c0.59-1.87,1.09-3.45,1.59-5.06c-1.33-0.96-2.62-1.9-3.9-2.83c0.04-0.08,0.05-0.11,0.07-0.13
			c0.03-0.02,0.06-0.05,0.1-0.05c1.59,0,3.19,0,4.77,0c0.52-1.62,1.02-3.2,1.53-4.79c0.07,0,0.13,0,0.2,0
			c0.53,1.55,1.05,3.11,1.61,4.77c1.55,0,3.2,0,5.08,0c-1.37,1.22-2.78,2.02-4.08,3.08c0.51,1.59,1.01,3.18,1.55,4.88
			c-1.61-0.8-2.74-2.11-4.27-2.89c-0.64,0.46-1.32,0.94-1.99,1.43C271.28,288.88,270.61,289.37,269.71,290.01z"/>
		<path d="M321.55,299.49c-1.32-0.96-2.58-1.87-4-2.9c1.84,0,3.47,0,5.12,0c0.53-1.65,1.05-3.26,1.59-4.93
			c0.8,0.71,0.6,1.7,0.99,2.47c0.36,0.72,0.49,1.55,0.73,2.38c1.6,0,3.23,0,4.88,0c-0.12,0.47-0.43,0.65-0.81,0.82
			c-0.37,0.17-0.68,0.48-1.01,0.75c-0.29,0.24-0.53,0.54-0.91,0.7c-0.38,0.16-0.68,0.48-1.08,0.78c0.5,1.57,1.01,3.15,1.58,4.92
			c-0.93-0.46-1.57-1.06-2.26-1.59c-0.68-0.52-1.43-0.95-2.06-1.37c-1.43,1.03-2.74,1.98-4.24,3.07c0.23-0.73,0.39-1.25,0.56-1.76
			c0.18-0.57,0.43-1.1,0.51-1.71C321.19,300.58,321.73,300.15,321.55,299.49z"/>
		<path d="M314.41,281.93c-1.51,1.1-2.79,2.03-4.14,3.01c0.14,0.51,0.2,1.09,0.46,1.57c0.3,0.54,0.26,1.16,0.53,1.7
			c0.24,0.48,0.34,1.03,0.58,1.79c-1.54-1.08-2.88-2.03-4.3-3.03c-1.34,0.95-2.7,1.92-4.25,3.02c0.51-1.59,0.96-2.98,1.4-4.37
			c0.04,0.01,0.07,0.02,0.11,0.03c0-0.24,0-0.48,0-0.78c-1.27-0.9-2.57-1.83-4.09-2.9c1.91,0,3.56,0,5.2,0
			c0.39-1.6,1.11-3.01,1.38-4.55c0.01-0.03,0.05-0.06,0.08-0.09c0.06-0.06,0.11-0.11,0.21-0.21c0.73,1.52,1.01,3.17,1.67,4.81
			C310.8,281.93,312.46,281.93,314.41,281.93z"/>
		<path d="M154.76,296.58c0.56-1.67,1.1-3.24,1.7-5.03c0.83,1.73,1.03,3.42,1.74,4.99c1.61,0,3.23,0,5.09,0
			c-0.8,0.6-1.44,1.09-2.08,1.56c-0.64,0.47-1.3,0.92-1.9,1.35c-0.04,0.72,0.26,1.25,0.46,1.82c0.36,1.03,0.62,2.09,0.98,3.35
			c-1.53-1.11-2.9-2.1-4.28-3.1c-1.35,0.98-2.67,1.94-4.1,2.98c0.04-0.31,0.04-0.55,0.11-0.76c0.45-1.37,0.91-2.74,1.36-4.1
			c-1.33-1-2.61-1.97-4.05-3.05C151.53,296.58,153.08,296.58,154.76,296.58z"/>
		<path d="M259.87,299.62c0.5,1.55,1.02,3.13,1.59,4.89c-1.56-0.99-2.91-2.03-4.23-3.03c-1.45,1.05-2.78,2.01-4.3,3.12
			c0.57-1.83,1.06-3.41,1.56-5.03c-0.67-0.51-1.33-1.02-2-1.51c-0.63-0.46-1.27-0.9-2.09-1.48c1.88,0,3.51,0,5.15,0
			c0.47-1.64,0.97-3.22,1.58-5.07c0.75,1.81,1.2,3.41,1.75,5.03c1.59,0,3.22,0,4.91,0c-0.2,0.63-0.8,0.71-1.17,1.04
			c-0.38,0.35-0.88,0.57-1.31,0.88C260.88,298.78,260.48,299.14,259.87,299.62z"/>
		<path d="M289.1,296.58c0.59-1.7,0.98-3.31,1.66-5.01c0.74,1.71,1.12,3.34,1.67,4.96c1.6,0,3.23,0,4.87,0
			c-0.1,0.67-0.74,0.71-1.11,1.04c-0.41,0.38-0.94,0.62-1.39,0.95c-0.43,0.32-0.84,0.67-1.33,1.07c0.5,1.56,1.02,3.14,1.6,4.94
			c-0.88-0.57-1.62-1.02-2.32-1.53c-0.7-0.52-1.3-1.17-2.01-1.47c-1.43,1.04-2.74,1.98-4.22,3.06c0.53-1.81,1.1-3.37,1.56-5.02
			c-1.3-0.96-2.6-1.92-4.04-2.98C285.85,296.58,287.47,296.58,289.1,296.58z"/>
	</g>
</g>
</svg>
