<?xml version="1.0" encoding="utf-8"?>
<!-- Generator: Adobe Illustrator 25.4.2, SVG Export Plug-In . SVG Version: 6.00 Build 0)  -->
<svg version="1.1" id="Layer_1" xmlns="http://www.w3.org/2000/svg" xmlns:xlink="http://www.w3.org/1999/xlink" x="0px" y="0px"
	 viewBox="0 0 480 480" style="enable-background:new 0 0 480 480;" xml:space="preserve">
<style type="text/css">
	.st0{fill:#FFFFFF;}
</style>
<g>
	<g>
		<path class="st0" d="M483.24,190.71c0,6.56,0,13.12,0,19.68c-0.6,0.01-1.2,0.03-1.8,0.03c-96.02,0-192.05,0-288.07,0
			c-0.54,0-1.09,0-1.62,0c0,6.63,0,13.08,0,19.62c0.63,0,1.19,0,1.74,0c47.47,0,94.94,0,142.41,0c49.11,0.01,98.22,0.02,147.33,0.03
			c0,6.56,0,13.12,0,19.68c-0.36,0.01-0.72,0.03-1.08,0.03c-161.36,0-322.72,0-484.08,0c-0.36,0-0.72-0.02-1.08-0.03
			c0-45.56,0-91.12,0.04-136.69c0-0.36,0.68-1.04,1.04-1.04c161.36-0.05,322.72-0.05,484.08,0c0.36,0,1.03,0.67,1.03,1.04
			c0.06,6.2,0.05,12.4,0.05,18.6c-0.6,0.01-1.2,0.03-1.8,0.03c-96.02,0-192.05,0-288.07,0c-0.54,0-1.09,0-1.62,0
			c0,6.63,0,13.08,0,19.62c0.63,0,1.19,0,1.74,0c47.59,0,95.18,0,142.77,0c48.99,0.01,97.98,0.02,146.97,0.03
			c0,6.56,0,13.12,0,19.68c-0.6,0.01-1.2,0.03-1.8,0.03c-96.02,0-192.05,0-288.07,0c-0.54,0-1.09,0-1.62,0c0,6.63,0,13.08,0,19.62
			c0.63,0,1.19,0,1.74,0c47.47,0,94.94,0,142.41,0C385.02,190.69,434.13,190.7,483.24,190.71z"/>
		<path d="M-3,249.76c0.36,0.01,0.72,0.03,1.08,0.03c161.36,0,322.72,0,484.08,0c0.36,0,0.72-0.02,1.08-0.03c0,6.56,0,13.12,0,19.68
			c-0.36-0.01-0.72-0.03-1.08-0.03c-161.36,0-322.72,0-484.08,0c-0.36,0-0.72,0.02-1.08,0.03C-3,262.88-3,256.32-3,249.76z"/>
		<path class="st0" d="M-3,269.44c0.36-0.01,0.72-0.03,1.08-0.03c161.36,0,322.72,0,484.08,0c0.36,0,0.72,0.02,1.08,0.03
			c0,6.56,0,13.12,0,19.68c-0.36,0.01-0.72,0.03-1.08,0.03c-161.36,0-322.72,0-484.08,0c-0.36,0-0.72-0.02-1.08-0.03
			C-3,282.56-3,276-3,269.44z"/>
		<path d="M-3,289.12c0.36,0.01,0.72,0.03,1.08,0.03c161.36,0,322.72,0,484.08,0c0.36,0,0.72-0.02,1.08-0.03c0,6.56,0,13.12,0,19.68
			c-0.36-0.01-0.72-0.03-1.08-0.03c-161.36,0-322.72,0-484.08,0c-0.36,0-0.72,0.02-1.08,0.03C-3,302.24-3,295.68-3,289.12z"/>
		<path class="st0" d="M-3,308.8c0.36-0.01,0.72-0.03,1.08-0.03c161.36,0,322.72,0,484.08,0c0.36,0,0.72,0.02,1.08,0.03
			c0,6.56,0,13.12,0,19.68c-0.36,0.01-0.72,0.03-1.08,0.03c-161.36,0-322.72,0-484.08,0c-0.36,0-0.72-0.02-1.08-0.03
			C-3,321.92-3,315.36-3,308.8z"/>
		<path d="M-3,328.48c0.36,0.01,0.72,0.03,1.08,0.03c161.36,0,322.72,0,484.08,0c0.36,0,0.72-0.02,1.08-0.03c0,6.56,0,13.12,0,19.68
			c-0.36-0.01-0.72-0.03-1.08-0.03c-161.36,0-322.72,0-484.08,0c-0.36,0-0.72,0.02-1.08,0.03C-3,341.6-3,335.04-3,328.48z"/>
		<path class="st0" d="M-3,348.16c0.36-0.01,0.72-0.03,1.08-0.03c161.36,0,322.72,0,484.08,0c0.36,0,0.72,0.02,1.08,0.03
			c0,6.56,0,13.12,0,19.68c-162.08,0-324.16,0-486.24,0C-3,361.28-3,354.72-3,348.16z"/>
		<path d="M483.24,151.35c-48.99-0.01-97.98-0.02-146.97-0.03c-47.59,0-95.18,0-142.77,0c-0.55,0-1.11,0-1.74,0c0-6.54,0-13,0-19.62
			c0.54,0,1.08,0,1.62,0c96.02,0,192.05,0,288.07,0c0.6,0,1.2-0.02,1.8-0.03C483.24,138.23,483.24,144.79,483.24,151.35z"/>
		<path d="M483.24,190.71c-49.11-0.01-98.22-0.02-147.33-0.03c-47.47,0-94.94,0-142.41,0c-0.55,0-1.11,0-1.74,0c0-6.54,0-13,0-19.62
			c0.54,0,1.08,0,1.62,0c96.02,0,192.05,0,288.07,0c0.6,0,1.2-0.02,1.8-0.03C483.24,177.59,483.24,184.15,483.24,190.71z"/>
		<path d="M483.24,230.08c-49.11-0.01-98.22-0.02-147.33-0.03c-47.47,0-94.94,0-142.41,0c-0.55,0-1.11,0-1.74,0c0-6.54,0-13,0-19.62
			c0.54,0,1.08,0,1.62,0c96.02,0,192.05,0,288.07,0c0.6,0,1.2-0.02,1.8-0.03C483.24,216.95,483.24,223.52,483.24,230.08z"/>
	</g>
</g>
</svg>
